<svg width="592" height="177" viewBox="0 0 592 177" fill="none" xmlns="http://www.w3.org/2000/svg">
<rect x="30" width="55" height="16" fill="black"/>
<rect x="30" y="96" width="27.5" height="27.5" fill="#242021"/>
<rect x="57.5" y="96" width="27.5" height="27.5" fill="#E30284"/>
<rect x="30" y="123.5" width="27.5" height="27.5" fill="#0BAAEE"/>
<rect x="57.5" y="123.5" width="27.5" height="27.5" fill="#FDEE0B"/>
<path d="M0 39H92.25C101.777 39 109.5 46.7231 109.5 56.25V56.25C109.5 65.7769 101.777 73.5 92.25 73.5H30" stroke="black" stroke-width="17"/>
<path d="M118 151L118 97" stroke="black" stroke-width="17"/>
<path d="M168 151L168 97" stroke="black" stroke-width="14"/>
<path d="M168 92L168 74" stroke="#E30284" stroke-width="14"/>
<path d="M168 92L168 74" stroke="#0BAAEE" stroke-width="14"/>
<path d="M419 151L419 97" stroke="black" stroke-width="14"/>
<path d="M419 92L419 74" stroke="#0BAAEE" stroke-width="14"/>
<path d="M419 92L419 74" stroke="#E30284" stroke-width="14"/>
<path d="M478 92L478 74" stroke="#FDEE0B" stroke-width="14"/>
<path d="M478 151V97" stroke="black" stroke-width="14"/>
<path d="M448 151L448 74" stroke="black" stroke-width="14"/>
<path d="M151 106H141C128.297 106 118 116.297 118 129V138" stroke="black" stroke-width="14"/>
<path d="M197 150.5V122.5C197 113.387 204.387 106 213.5 106V106C222.613 106 230 113.387 230 122.5V150.5" stroke="black" stroke-width="14"/>
<path d="M551 97V125C551 134.113 558.387 141.5 567.5 141.5V141.5C576.613 141.5 584 134.113 584 125V97" stroke="black" stroke-width="14"/>
<path d="M260 73.5V150.5M240 99H280.5" stroke="black" stroke-width="14"/>
<path d="M515 82V150.5M495 109H535.5" stroke="black" stroke-width="14"/>
<circle cx="310.5" cy="123.5" r="19.5" stroke="black" stroke-width="14"/>
<circle cx="374.5" cy="123.5" r="19.5" stroke="black" stroke-width="14"/>
<path d="M330 122.5V150.5" stroke="black" stroke-width="14"/>
<path d="M355 74L355 124" stroke="black" stroke-width="14"/>
<path d="M584.5 97.5V151.5C584.5 161.441 576.441 169.5 566.5 169.5H543.5" stroke="black" stroke-width="14"/>
</svg>
